<svg width="58" height="62" viewBox="0 0 58 62" fill="none" xmlns="http://www.w3.org/2000/svg"><path d="M28.358 61.604h.637V30.909h-.637v30.695Z" fill="#DEE212"/><path d="m24.331 61.21.631.093 4.035-30.396-.63-.094L24.33 61.21Z" fill="#DEE212"/><path d="m20.394 60.229.612.186 7.99-29.506-.612-.186-7.99 29.506Z" fill="#DEE212"/><path d="m16.627 58.676.582.274L29 30.91l-.582-.275-11.79 28.041Z" fill="#DEE212"/><path d="m13.09 56.586.54.357 15.361-26.03-.54-.358-15.362 26.03Z" fill="#DEE212"/><path d="m9.874 53.988.488.433 18.634-23.513-.488-.434L9.874 53.988Z" fill="#DEE212"/><path d="m7.022 50.942.427.501 21.543-20.538-.426-.502-21.544 20.54Z" fill="#DEE212"/><path d="m4.611 47.474.357.56 24.061-17.189-.357-.56-24.06 17.19Z" fill="#DEE212"/><path d="m2.655 43.757.28.607 26.054-13.456-.28-.606L2.656 43.757Z" fill="#DEE212"/><path d="m1.23 39.745.197.642 27.57-9.486-.197-.641-27.57 9.485Z" fill="#DEE212"/><path d="m.335 35.575.11.664 28.549-5.33-.11-.663-28.55 5.33Z" fill="#DEE212"/><path d="m0 31.303.022.674 28.972-1.071-.023-.674L0 31.302Z" fill="#DEE212"/><path d="m.229 27.025-.067.671 28.83 3.206.067-.671L.23 27.025Z" fill="#DEE212"/><path d="m1.02 22.826-.154.655 28.128 7.425.155-.655-28.13-7.425Z" fill="#DEE212"/><path d="m2.35 18.783-.239.625 26.878 11.497.239-.625L2.35 18.783Z" fill="#DEE212"/><path d="m4.205 14.973-.318.585 25.106 15.345.319-.584L4.205 14.974Z" fill="#DEE212"/><path d="m6.539 11.476-.392.531 22.845 18.896.392-.531L6.54 11.476Z" fill="#DEE212"/><path d="m9.314 8.358-.459.468 20.14 22.079.458-.469L9.313 8.358Z" fill="#DEE212"/><path d="m12.468 5.677-.515.396 17.04 24.832.516-.397L12.47 5.677Z" fill="#DEE212"/><path d="m15.948 3.48-.563.317 13.612 27.101.562-.316L15.948 3.48Z" fill="#DEE212"/><path d="m19.677 1.83-.598.23 9.915 28.844.598-.23L19.677 1.83Z" fill="#DEE212"/><path d="m23.591.738-.623.14 6.026 30.025.623-.14L23.59.738Z" fill="#DEE212"/><path d="m27.613.236-.636.047L29 30.903l.635-.047L27.613.236Z" fill="#DEE212"/><path d="m31.658.331-.636-.047L29 30.904l.636.047L31.658.331Z" fill="#DEE212"/><path d="m35.646 1.021-.623-.14-6.027 30.024.623.14 6.027-30.024Z" fill="#DEE212"/><path d="m39.513 2.29-.599-.23L29 30.903l.599.23L39.513 2.29Z" fill="#DEE212"/><path d="m43.17 4.12-.562-.317-13.61 27.102.563.317L43.171 4.12Z" fill="#DEE212"/><path d="m46.55 6.465-.516-.396L28.994 30.9l.516.397L46.55 6.465Z" fill="#DEE212"/><path d="m49.595 9.295-.459-.47L29 30.906l.458.47 20.138-22.08Z" fill="#DEE212"/><path d="m52.234 12.54-.392-.532-22.844 18.898.392.531L52.234 12.54Z" fill="#DEE212"/><path d="m54.39 16.317-.32-.587-25.22 15.347.319.587 25.22-15.347Z" fill="#DEE212"/><path d="m56.12 20.032-.239-.626-26.878 11.497.238.625L56.12 20.032Z" fill="#DEE212"/><path d="m57.283 24.132-.154-.655-28.13 7.425.155.655 28.129-7.425Z" fill="#DEE212"/><path d="m57.895 28.362-.067-.67-28.83 3.205.066.67 28.83-3.205Z" fill="#DEE212"/><path d="m57.95 32.65.022-.674L29 30.904l-.022.675 28.971 1.07Z" fill="#DEE212"/><path d="m57.44 36.9.11-.663-28.548-5.33-.11.664L57.44 36.9Z" fill="#DEE212"/><path d="m56.369 41.03.197-.642-27.57-9.485-.198.642 27.57 9.485Z" fill="#DEE212"/><path d="m54.778 44.97.279-.606-26.055-13.455-.279.606L54.778 44.97Z" fill="#DEE212"/><path d="m52.68 48.627.356-.56-24.034-17.163-.356.559L52.68 48.627Z" fill="#DEE212"/><path d="m50.115 51.947.426-.501-21.543-20.54-.426.502 21.543 20.539ZM47.146 54.856l.488-.434L29 30.91l-.488.433 18.634 23.514Z" fill="#DEE212"/><path d="m43.82 57.299.54-.358L29 30.911l-.54.357 15.361 26.03Z" fill="#DEE212"/><path d="m40.21 59.229.583-.274-11.791-28.041-.582.274 11.79 28.041Z" fill="#DEE212"/><path d="m36.377 60.6.612-.186-7.99-29.506-.613.186 7.99 29.505Z" fill="#DEE212"/><path d="m32.398 61.4.631-.094-4.034-30.396-.631.094L32.398 61.4Z" fill="#DEE212"/></svg>